<svg width="50" height="50" viewBox="0 0 50 50" fill="none" xmlns="http://www.w3.org/2000/svg">
<g clip-path="url(#clip0)">
<path d="M27.7876 15.4527C26.5003 11.3369 23.2792 8.1123 19.1647 6.82068C18.5363 6.60796 17.8927 6.44326 17.2394 6.32794L7.06522 19.5315C6.78269 19.8941 6.81394 20.4102 7.13822 20.736L13.9088 27.5066C14.2346 27.8309 14.7507 27.8621 15.1133 27.5796L28.2804 17.3872C28.1569 16.7327 27.9925 16.0866 27.7876 15.4527Z" fill="#35F425"/>
<path d="M30.671 4.04676C28.2131 1.38141 24.7235 -0.0922437 21.0991 0.00447914C20.1302 -0.00533001 19.1631 0.0926475 18.2157 0.296473C17.7281 0.423878 17.4362 0.922434 17.5636 1.41004C17.5919 1.51805 17.6397 1.62002 17.7047 1.71082C18.2815 2.58166 18.4576 3.65793 18.1883 4.66725C18.7813 4.80503 19.3662 4.97567 19.9403 5.17824C24.4382 6.65817 27.9689 10.182 29.4574 14.6772C29.6518 15.2553 29.8163 15.8431 29.9502 16.4382C30.2676 16.3664 30.592 16.3298 30.9174 16.3287C31.6284 16.318 32.3245 16.532 32.9066 16.9401C33.3178 17.2315 33.8873 17.1343 34.1787 16.7233C34.2455 16.6291 34.2937 16.5231 34.321 16.4109C34.394 16.1097 36.0821 8.96503 30.671 4.04676Z" fill="#35F425"/>
<path d="M12.1568 10.1968L8.87192 6.91191C8.51605 6.55809 7.94119 6.55809 7.58532 6.91191L3.58866 10.8629C3.23485 11.2188 3.23485 11.7937 3.58866 12.1495L7.38458 15.9455C7.55533 16.1196 7.78858 16.2182 8.03244 16.2192H8.08719C8.35021 16.2023 8.59304 16.0726 8.7533 15.8633L12.2298 11.4013C12.5124 11.0387 12.481 10.5227 12.1568 10.1968Z" fill="#35F425"/>
<path d="M24.4206 22.5062C24.0925 22.1575 23.5508 22.1217 23.1796 22.4241L18.7176 25.8732C18.3175 26.1797 18.2416 26.7524 18.5481 27.1525C18.5722 27.184 18.5984 27.2139 18.6263 27.242L24.8129 33.4286L26.0995 32.142L28.8096 29.4684L30.0962 28.1818L24.4206 22.5062Z" fill="#35F425"/>
<path d="M46.4113 44.4969H46.4204L31.3919 29.4684L30.0962 30.755L27.4318 33.4194L26.1452 34.7151L41.1737 49.7345C41.5296 50.0884 42.1044 50.0884 42.4603 49.7345L46.4113 45.7835C46.7651 45.4276 46.7651 44.8529 46.4113 44.4969Z" fill="#35F425"/>
</g>
<defs>
<clipPath id="clip0">
<rect width="50" height="50" fill="white"/>
</clipPath>
</defs>
</svg>
