<svg width="50" height="45" viewBox="0 0 50 45" fill="none" xmlns="http://www.w3.org/2000/svg">
<path d="M45.8333 2.77777H4.16667C1.86632 2.77777 0 4.64409 0 6.94444V8.33333H50V6.94444C50 4.64409 48.1337 2.77777 45.8333 2.77777ZM0 37.5C0 39.8003 1.86632 41.6667 4.16667 41.6667H45.8333C48.1337 41.6667 50 39.8003 50 37.5V11.1111H0V37.5ZM30.5556 17.3611C30.5556 16.9792 30.8681 16.6667 31.25 16.6667H43.75C44.1319 16.6667 44.4444 16.9792 44.4444 17.3611V18.75C44.4444 19.1319 44.1319 19.4444 43.75 19.4444H31.25C30.8681 19.4444 30.5556 19.1319 30.5556 18.75V17.3611ZM30.5556 22.9167C30.5556 22.5347 30.8681 22.2222 31.25 22.2222H43.75C44.1319 22.2222 44.4444 22.5347 44.4444 22.9167V24.3055C44.4444 24.6875 44.1319 25 43.75 25H31.25C30.8681 25 30.5556 24.6875 30.5556 24.3055V22.9167ZM30.5556 28.4722C30.5556 28.0903 30.8681 27.7778 31.25 27.7778H43.75C44.1319 27.7778 44.4444 28.0903 44.4444 28.4722V29.8611C44.4444 30.243 44.1319 30.5555 43.75 30.5555H31.25C30.8681 30.5555 30.5556 30.243 30.5556 29.8611V28.4722ZM15.2778 16.6667C18.342 16.6667 20.8333 19.158 20.8333 22.2222C20.8333 25.2865 18.342 27.7778 15.2778 27.7778C12.2135 27.7778 9.72222 25.2865 9.72222 22.2222C9.72222 19.158 12.2135 16.6667 15.2778 16.6667ZM5.82465 34.3924C6.55382 32.1615 8.64583 30.5555 11.1111 30.5555H11.8229C12.8906 30.9983 14.0538 31.25 15.2778 31.25C16.5017 31.25 17.6736 30.9983 18.7326 30.5555H19.4444C21.9097 30.5555 24.0017 32.1615 24.7309 34.3924C25.0087 35.2517 24.2795 36.1111 23.3767 36.1111H7.17882C6.27604 36.1111 5.54687 35.243 5.82465 34.3924Z" fill="#35F425"/>
</svg>
