<svg width="50" height="50" viewBox="0 0 50 50" fill="none" xmlns="http://www.w3.org/2000/svg">
<g clip-path="url(#clip0)">
<path d="M38.0847 42.0457L29.656 36.4266C29.279 36.1777 28.774 36.2596 28.495 36.615L26.0409 39.7702C25.2455 40.8068 23.81 41.1026 22.6696 40.465L22.2159 40.2158C20.5789 39.3227 18.5409 38.2117 14.4953 34.1662C10.4498 30.1206 9.33789 28.0827 8.44569 26.4448L8.19564 25.9911C7.55809 24.851 7.85396 23.4157 8.89042 22.6207L12.0448 20.1656C12.4005 19.8868 12.4826 19.3816 12.2332 19.0046L6.6149 10.575C6.35937 10.1925 5.84881 10.0774 5.45389 10.3133L1.9272 12.4281C1.17058 12.8697 0.614106 13.5868 0.374207 14.4294C-0.784067 18.6474 0.190278 26.033 11.408 37.2517C22.6257 48.4704 30.0096 49.4465 34.2311 48.2872C35.0739 48.047 35.7909 47.4902 36.2325 46.7332L38.3463 43.2065C38.5828 42.8119 38.4676 42.3011 38.0847 42.0457Z" fill="#35F425"/>
<path d="M49.8577 1.48045C49.7653 1.38804 49.6395 1.33676 49.5088 1.33823H12.0894C11.9587 1.33676 11.8329 1.38804 11.7405 1.48045C11.6481 1.57285 11.5968 1.69866 11.5983 1.82936V14.8306L13.7202 18.0135C14.4855 19.1698 14.2339 20.7199 13.1424 21.575L9.99078 24.0301C9.65339 24.286 9.55532 24.751 9.76035 25.1214L10.0175 25.5903C10.8376 27.1498 11.8378 28.6078 12.9977 29.9342H49.5088C49.7767 29.9361 49.996 29.7216 50 29.4537V1.82936C50.0015 1.69866 49.9502 1.57285 49.8577 1.48045ZM24.4843 17.7223V17.7178L15.3358 27.5192C14.9994 27.88 14.4342 27.8997 14.0735 27.5634C13.7126 27.227 13.6929 26.6618 14.0292 26.3011L23.1777 16.5042C23.5141 16.1434 24.0793 16.1237 24.44 16.46C24.8008 16.7964 24.8207 17.3616 24.4843 17.7223ZM30.7991 17.0186C30.1555 17.0215 29.5284 16.8146 29.0129 16.4292L14.0863 5.11048C13.6933 4.8111 13.6173 4.24974 13.9167 3.85658C14.2161 3.46352 14.7774 3.38753 15.1706 3.68691L30.091 15.0056C30.5133 15.3124 31.0851 15.3124 31.5075 15.0056L46.4322 3.68691C46.8252 3.3888 47.3856 3.46577 47.6838 3.85883C47.982 4.25189 47.905 4.81227 47.5119 5.11048L32.5852 16.4292C32.0698 16.8146 31.4428 17.0215 30.7991 17.0186ZM47.5816 27.563C47.4084 27.7248 47.178 27.811 46.9411 27.8028C46.7042 27.7946 46.4803 27.6926 46.3188 27.5193L37.1712 17.7179C36.8603 17.3536 36.8922 16.8091 37.2431 16.4835C37.5942 16.1579 38.1395 16.167 38.4795 16.5042L47.6253 26.3011C47.9615 26.6616 47.942 27.2265 47.5816 27.563Z" fill="#35F425"/>
</g>
<defs>
<clipPath id="clip0">
<rect width="50" height="50" fill="white"/>
</clipPath>
</defs>
</svg>
