<svg width="50" height="50" viewBox="0 0 50 50" fill="none" xmlns="http://www.w3.org/2000/svg">
<g clip-path="url(#clip0)">
<path d="M42.6818 14.4243C41.1758 12.0207 33.6959 0.152617 29.4773 0.00301932C28.6697 -0.0378708 27.8978 0.338742 27.4328 1.00034C24.4408 5.1093 34.5437 19.6203 38.4831 24.9959L39.3607 24.4473C39.631 24.2727 39.9145 24.1193 40.2084 23.9886C42.5811 22.9035 45.3803 23.4353 47.1897 25.315C46.6112 20.847 42.8414 14.6836 42.6818 14.4243ZM37.6003 16.1135C37.2206 16.5124 36.5893 16.528 36.1904 16.1483C36.146 16.106 36.1055 16.0596 36.0696 16.01C34.7017 14.2044 33.5063 12.2744 32.4992 10.2455C32.261 9.75494 32.4609 9.16415 32.948 8.91906C33.4383 8.67285 34.0354 8.86882 34.2844 9.35788C35.2171 11.2337 36.3152 13.0227 37.5655 14.7035C37.9645 15.0832 37.9801 15.7145 37.6003 16.1135Z" fill="#35F425"/>
<path d="M13.6498 34.7297C13.276 34.3251 12.645 34.3003 12.2405 34.6742C12.0792 34.8233 11.9715 35.0216 11.9344 35.2383L11.5953 37.2329L11.336 37.4025L9.44114 35.4079L11.2662 33.6127C11.6399 33.2261 11.6399 32.613 11.2662 32.2264L10.6778 31.5881C8.95931 29.7291 6.05922 29.6153 4.20022 31.3338C2.34121 33.0523 2.22739 35.9524 3.9459 37.8114L12.3832 46.9369C12.4518 47.0006 12.5291 47.0543 12.6126 47.0964C12.357 46.1344 12.34 45.1245 12.5627 44.1543V44.0945C12.9021 42.5158 13.8522 41.1355 15.2056 40.2548L15.7542 39.9457L17.4496 38.8386L13.6498 34.7297Z" fill="#35F425"/>
<path d="M46.5514 27.1002C45.1733 24.9937 42.3486 24.4032 40.2421 25.7812C40.2409 25.7821 40.2396 25.7828 40.2384 25.7837L16.0534 41.5912C13.9268 42.9381 13.2948 45.7539 14.6417 47.8803C15.9885 50.0069 18.8043 50.6389 20.9307 49.2921C20.9674 49.2687 21.0038 49.2451 21.0398 49.2207L45.175 33.4032C47.2929 32.0408 47.9085 29.2214 46.5514 27.1002ZM19.3813 46.7628C19.379 46.7643 19.3768 46.7658 19.3744 46.7673C18.6728 47.2241 17.7337 47.0256 17.2769 46.324C16.8202 45.6224 17.0186 44.6833 17.7203 44.2265C18.4192 43.7715 19.3545 43.9665 19.8133 44.663C20.2739 45.3621 20.0804 46.3023 19.3813 46.7628ZM43.7343 30.8169C43.713 30.8319 43.6912 30.8462 43.6691 30.8601V30.8102C42.9675 31.267 42.0284 31.0685 41.5717 30.3669C41.1149 29.6653 41.3133 28.7262 42.015 28.2694C42.714 27.8144 43.6492 28.0094 44.108 28.7059C44.5878 29.392 44.4205 30.3371 43.7343 30.8169Z" fill="#35F425"/>
</g>
<defs>
<clipPath id="clip0">
<rect width="50" height="50" fill="white"/>
</clipPath>
</defs>
</svg>
