<svg width="50" height="50" viewBox="0 0 50 50" fill="none" xmlns="http://www.w3.org/2000/svg">
<g clip-path="url(#clip0)">
<path d="M15.327 15.1084V12.2115C15.327 11.7491 14.9521 11.3743 14.4897 11.3743C14.0273 11.3743 13.6525 11.7491 13.6525 12.2115V15.7866C13.1334 17.235 8.11821 31.1502 2.39978 36.3663L1.6295 34.1643C1.47691 33.7273 0.998946 33.4968 0.562004 33.6494C0.125063 33.802 -0.105496 34.2799 0.0470937 34.7169L1.21088 38.0659C1.22542 38.0977 1.24227 38.1285 1.26111 38.158C1.28183 38.205 1.30706 38.2499 1.33646 38.2919C1.37979 38.3309 1.42762 38.3646 1.4788 38.3924L1.56252 38.4761C1.60491 38.5027 1.64981 38.5251 1.69648 38.5431L1.79695 38.5934C1.88298 38.6069 1.97047 38.6069 2.0565 38.5934H20.3421C20.3196 38.5616 20.3 38.528 20.2835 38.4929L19.7895 36.9188L19.0192 34.4657C18.9083 34.112 19.1051 33.7352 19.4588 33.6243C19.8125 33.5133 20.1893 33.7101 20.3002 34.0638L21.1961 36.9188L21.2631 37.1282L21.4724 36.9188C26.3871 32.2386 30.2217 22.8781 32.3567 16.7494C32.5521 16.1801 32.7363 15.6331 32.9093 15.1084H15.327Z" fill="#35F425"/>
<path d="M34.0061 16.0964L33.78 16.783C31.7873 22.6186 28.1537 31.6944 23.3311 36.944C22.7905 37.5394 22.2116 38.0988 21.598 38.6185H34.073L34.0061 16.0964Z" fill="#35F425"/>
<path d="M49.6074 33.3535C49.5768 33.3342 49.5449 33.317 49.512 33.302C49.1016 33.0889 48.5962 33.2488 48.3832 33.6593C48.3826 33.6602 48.3822 33.6611 48.3817 33.662L46.9751 36.3663C40.2771 29.2413 36.3085 17.8463 35.6722 15.9541V20.7767L35.7224 36.944V38.6185H47.1928C47.2678 38.6283 47.3438 38.6283 47.4188 38.6185H47.5026L47.6365 38.5515L47.7119 38.4929L47.8124 38.4008L47.871 38.3171L47.9296 38.2418L49.872 34.5076C50.1176 34.1158 49.9992 33.5991 49.6074 33.3535Z" fill="#35F425"/>
</g>
<defs>
<clipPath id="clip0">
<rect width="50" height="50" fill="white"/>
</clipPath>
</defs>
</svg>
